<?xml version="1.0" encoding="UTF-8" standalone="no"?>
<svg
   xmlns:dc="http://purl.org/dc/elements/1.1/"
   xmlns:cc="http://creativecommons.org/ns#"
   xmlns:rdf="http://www.w3.org/1999/02/22-rdf-syntax-ns#"
   xmlns:svg="http://www.w3.org/2000/svg"
   xmlns="http://www.w3.org/2000/svg"
   version="1.1"
   viewBox="0 0 250 250"
   height="250"
   width="250"
   alt="Rocket Ship"
   id="rocket">
  <metadata
     id="metadata12">
    <rdf:RDF>
      <cc:Work
         rdf:about="">
        <dc:format>image/svg+xml</dc:format>
        <dc:type
           rdf:resource="http://purl.org/dc/dcmitype/StillImage" />
        <dc:title></dc:title>
      </cc:Work>
    </rdf:RDF>
  </metadata>
  <defs
     id="defs10" />
  <g
     id="g4546"
     transform="scale(2.4587423)"
     style="display:inline">
    <circle
       style="display:inline;fill:#dd0031"
       r="50.839001"
       cy="50.839001"
       cx="50.839001"
       data-name="Ellipse 8"
       id="Ellipse_8" />
  </g>
  <path
     id="path836"
     style="display:inline;opacity:1;fill:#ffffff;fill-opacity:1;stroke:none;stroke-width:26.6783;stroke-linecap:round;stroke-linejoin:round;stroke-opacity:1"
     d="M 124.37305,38.945312 A 86.055979,86.055979 0 0 0 38.945312,125.00195 86.055979,86.055979 0 0 0 56.597656,177.2168 l 16.984375,-18.53711 a 61.468557,61.468557 0 0 1 -10.048828,-33.67774 61.468557,61.468557 0 0 1 61.050777,-61.468747 61.468557,61.468557 0 0 1 0.41797,0 61.468557,61.468557 0 0 1 29.07032,7.308594 l 16.98437,-18.535156 a 86.055979,86.055979 0 0 0 -46.05469,-13.361329 86.055979,86.055979 0 0 0 -0.6289,0 z m 69.42773,34.361329 -17.01758,18.572265 a 61.468557,61.468557 0 0 1 9.6875,33.123044 61.468557,61.468557 0 0 1 -61.46875,61.46875 61.468557,61.468557 0 0 1 -28.484372,-6.99804 L 79.5,198.04297 a 86.055979,86.055979 0 0 0 45.50195,13.01562 86.055979,86.055979 0 0 0 86.05664,-86.05664 86.055979,86.055979 0 0 0 -17.25781,-51.695309 z" />
  <g
     id="g1034"
     transform="rotate(-47.5,125,125)"
     style="display:inline;fill:#ffffff">
    <path
       style="display:inline;fill:#ffffff;fill-opacity:1;stroke:none;stroke-width:0.299333px;stroke-linecap:butt;stroke-linejoin:miter;stroke-opacity:1"
       d="M 60,135 95,95 H 25 Z"
       id="path1018" />
    <path
       style="display:inline;fill:#ffffff;fill-opacity:1;stroke:none;stroke-width:0.299333px;stroke-linecap:butt;stroke-linejoin:miter;stroke-opacity:1"
       d="m 190,115 35,40 h -70 z"
       id="path1020" />
  </g>
</svg>
