<svg xmlns="http://www.w3.org/2000/svg" width="250" height="250"><circle cx="125" cy="125" r="125" data-name="Ellipse 8" style="display:inline;fill:#dd0031;stroke-width:2.45874"/><path d="M125.145 38.945a86.056 86.056 0 0 0-3.9.082 86.056 86.056 0 0 0-82.249 89.1 86.056 86.056 0 0 0 .027.629 86.056 86.056 0 0 0 15.358 45.428l17.777-17.778a61.469 61.469 0 0 1-8.57-28.722 61.469 61.469 0 0 1-.018-.418 61.469 61.469 0 0 1 58.748-63.674 61.469 61.469 0 0 1 34.084 8.57l17.778-17.777a86.056 86.056 0 0 0-49.035-15.44zM94.166 178.178 76.354 195.99a86.056 86.056 0 0 0 41.318 14.754l-.945-24.834a61.469 61.469 0 0 1-22.561-7.732z" style="display:inline;opacity:1;fill:#fff;fill-opacity:1;stroke:none;stroke-width:26.6783;stroke-linecap:round;stroke-linejoin:round;stroke-opacity:1"/><path d="M178.033 86.11 125 82.573l49.497-49.498Z" style="display:inline;fill:#fff;fill-opacity:1;stroke:none;stroke-width:.299333px;stroke-linecap:butt;stroke-linejoin:miter;stroke-opacity:1"/><path d="M125 90c-4.155 0-7.5 6.69-7.5 15v23.107l16.338 16.338c5.876 5.876 12.972 8.241 15.91 5.303 2.938-2.938.573-10.034-5.303-15.91L132.5 121.893V105c0-8.31-3.345-15-7.5-15z" style="display:inline;opacity:1;fill:#fff;stroke-width:10;stroke-linecap:round;stroke-linejoin:round"/><path d="M54.01 76.357a86.056 86.056 0 0 0-14.987 52.399 86.056 86.056 0 0 0 89.729 82.22 86.056 86.056 0 0 0 44.89-14.988L155.83 178.18a61.469 61.469 0 0 1-28.152 8.232 61.469 61.469 0 0 1-64.09-58.728A61.469 61.469 0 0 1 71.82 94.17z" style="display:inline;opacity:1;fill:#fff;fill-opacity:1;stroke:none;stroke-width:26.6783;stroke-linecap:round;stroke-linejoin:round;stroke-opacity:1"/></svg>